<svg width="1440" height="1024" viewBox="0 0 1440 1024" fill="none" xmlns="http://www.w3.org/2000/svg">
<g opacity="0.16">
<mask id="mask0" mask-type="alpha" maskUnits="userSpaceOnUse" x="-53" y="-400" width="1546" height="1823">
<rect x="-53" y="-400" width="1546" height="1823" rx="24" fill="#181059"/>
</mask>
<g mask="url(#mask0)">
<path d="M556.477 -344.044C691.256 -298.142 474.245 104.055 1127.31 104.055C1472.18 104.055 1397.86 432.661 1605.97 455.977" stroke="#181059"/>
<path d="M821.085 -531.151C955.864 -485.248 738.853 -83.0516 1391.92 -83.0516C1736.79 -83.0516 1662.47 245.555 1870.58 268.87" stroke="#181059"/>
<path d="M-251 -142.649C-32.251 -171.781 415.611 -171.822 325.777 -0.0571689C177.123 284.172 527.121 563.41 1461.49 618.607" stroke="#181059"/>
<path d="M-552.477 -36.7098C-282.079 -72.6616 271.529 -72.7132 160.483 139.265C-23.2692 490.035 409.368 834.648 1564.35 902.767" stroke="#181059"/>
<path d="M-831.946 140.532C-525.849 99.8195 100.847 99.7611 -24.859 339.809C-232.871 737.029 256.884 1127.28 1564.35 1204.41" stroke="#181059"/>
</g>
</g>
</svg>
