<svg width="16" height="16" viewBox="0 0 16 16" fill="none" xmlns="http://www.w3.org/2000/svg">
<g clip-path="url(#clip0)">
<path d="M6.80661 12C6.50239 12 6.21426 11.884 6.02964 11.684L3.53088 8.986C3.45362 8.90268 3.39722 8.80774 3.3649 8.70659C3.33258 8.60545 3.32497 8.50009 3.3425 8.39654C3.36004 8.29299 3.40238 8.19329 3.4671 8.10312C3.53182 8.01295 3.61766 7.93409 3.7197 7.87104C3.82171 7.80774 3.938 7.7615 4.06191 7.73499C4.18582 7.70848 4.31492 7.70221 4.4418 7.71654C4.56868 7.73088 4.69086 7.76553 4.80132 7.81852C4.91178 7.87151 5.00836 7.9418 5.08552 8.02534L6.72968 9.79922L10.8635 4.37472C11.0006 4.19561 11.219 4.06826 11.4709 4.02058C11.7227 3.97291 11.9874 4.00881 12.2069 4.12041C12.6636 4.35243 12.8042 4.8439 12.5189 5.21765L7.63463 11.624C7.55126 11.7338 7.43633 11.8254 7.29984 11.8907C7.16334 11.956 7.0094 11.9932 6.85137 11.9989C6.83598 12 6.82199 12 6.80661 12Z" fill="#181059"/>
</g>
<defs>
<clipPath id="clip0">
<rect width="9.92" height="8.32" fill="white" transform="translate(3.03998 3.83997)"/>
</clipPath>
</defs>
</svg>
