<svg width="16" height="16" viewBox="0 0 16 16" fill="none" xmlns="http://www.w3.org/2000/svg">
<path d="M9.06061 8.00002L12.0294 5.03127C12.1703 4.89062 12.2495 4.69976 12.2497 4.50068C12.2499 4.3016 12.1709 4.1106 12.0303 3.96971C11.8897 3.82881 11.6988 3.74956 11.4997 3.74938C11.3006 3.74921 11.1096 3.82812 10.9687 3.96877L7.99999 6.93752L5.03124 3.96877C4.89034 3.82787 4.69925 3.74872 4.49999 3.74872C4.30073 3.74872 4.10964 3.82787 3.96874 3.96877C3.82784 4.10967 3.74869 4.30076 3.74869 4.50002C3.74869 4.69928 3.82784 4.89037 3.96874 5.03127L6.93749 8.00002L3.96874 10.9688C3.82784 11.1097 3.74869 11.3008 3.74869 11.5C3.74869 11.6993 3.82784 11.8904 3.96874 12.0313C4.10964 12.1722 4.30073 12.2513 4.49999 12.2513C4.69925 12.2513 4.89034 12.1722 5.03124 12.0313L7.99999 9.06252L10.9687 12.0313C11.1096 12.1722 11.3007 12.2513 11.5 12.2513C11.6992 12.2513 11.8903 12.1722 12.0312 12.0313C12.1721 11.8904 12.2513 11.6993 12.2513 11.5C12.2513 11.3008 12.1721 11.1097 12.0312 10.9688L9.06061 8.00002Z" fill="#181059"/>
</svg>
